<svg width="510" height="612" viewBox="0 0 510 612" fill="none" xmlns="http://www.w3.org/2000/svg">
<g id="Rocket">
<g id="RocketMain">
<mask id="path-1-inside-1_2_49" fill="white">
<path d="M101.731 354.138C96.5753 378.866 92.6608 400.146 92.6608 410.356C92.6608 505.051 216.416 587.696 230.539 596.807L253.843 611.876L277.179 596.811C291.31 587.701 415.212 505.063 415.212 410.361C415.212 400.151 411.945 378.869 406.79 354.138L509.193 281.845L509.193 20.5846L379.855 110.707L254.037 0.876142L128.766 110.707L0.193305 20.5846L0.193302 281.845L101.731 354.138ZM307.068 272.629C313.766 299.64 320.281 327.195 325.473 350.637L182.169 350.637C187.361 327.195 193.876 299.64 200.571 272.629L307.068 272.629ZM253.754 524.459C222.191 499.57 178.343 457.469 171.968 419.465L335.664 419.465C329.251 457.31 285.32 499.513 253.754 524.459ZM430.482 163.982L430.482 249.093L389.316 277.855C384.486 258.016 379.928 240.882 377.318 230.692L371.094 205.115L430.482 163.982ZM253.82 98.2164L306.761 144.514L253.82 188.589L200.876 144.514L253.82 98.2164ZM78.9047 163.982L137.529 205.115L130.757 230.688C128.146 240.879 124.137 258.013 119.307 277.855L78.9047 249.093L78.9047 163.982Z"/>
</mask>
<path d="M101.731 354.138C96.5753 378.866 92.6608 400.146 92.6608 410.356C92.6608 505.051 216.416 587.696 230.539 596.807L253.843 611.876L277.179 596.811C291.31 587.701 415.212 505.063 415.212 410.361C415.212 400.151 411.945 378.869 406.79 354.138L509.193 281.845L509.193 20.5846L379.855 110.707L254.037 0.876142L128.766 110.707L0.193305 20.5846L0.193302 281.845L101.731 354.138ZM307.068 272.629C313.766 299.64 320.281 327.195 325.473 350.637L182.169 350.637C187.361 327.195 193.876 299.64 200.571 272.629L307.068 272.629ZM253.754 524.459C222.191 499.57 178.343 457.469 171.968 419.465L335.664 419.465C329.251 457.31 285.32 499.513 253.754 524.459ZM430.482 163.982L430.482 249.093L389.316 277.855C384.486 258.016 379.928 240.882 377.318 230.692L371.094 205.115L430.482 163.982ZM253.82 98.2164L306.761 144.514L253.82 188.589L200.876 144.514L253.82 98.2164ZM78.9047 163.982L137.529 205.115L130.757 230.688C128.146 240.879 124.137 258.013 119.307 277.855L78.9047 249.093L78.9047 163.982Z" fill="#8F3D9C" stroke="#2F0935" stroke-width="20" mask="url(#path-1-inside-1_2_49)"/>
</g>
</g>
</svg>
